<svg width="3733px" height="951px" viewBox="0 0 3733 951" version="1.1" xmlns="http://www.w3.org/2000/svg" xmlns:xlink="http://www.w3.org/1999/xlink">
    <g id="Page-1" stroke="none" stroke-width="1" fill="none" fill-rule="evenodd">
        <g id="Artboard">
            <g id="footer">
                <rect id="Rectangle" fill="#FFFFFF" x="0" y="0" width="3733" height="956"></rect>
                <path d="M2480,948 L0,951 L0,118.026431 C573.783583,61.2223464 1010.96057,78.2135361 1311.53097,169 C1579.72773,268.813333 1969.2174,528.48 2480,948 Z" id="Path" fill="#624F58" opacity="0.66"></path>
                <path d="M3650,926 L981,926 L982.389381,147 C1461.14212,-8.81 1960.65221,-10.33 2481.53097,147 C2749.72773,246.813333 3139.2174,506.48 3650,926 Z" id="Path" fill="#624F58" opacity="0.66" transform="translate(2315.500000, 477.785904) scale(-1, 1) translate(-2315.500000, -477.785904) "></path>
                <path d="M2426,131.181128 C1936.65823,5.06882199 1647.30529,47.0496031 1406.8379,108.58609 C1235.54396,152.426463 1089.05408,206.164662 912.74375,216.162466 C732.181292,226.380223 567.015417,157.85527 406.588021,95.2990077 C316.497661,60.1708053 180.968321,28.4044694 0,0 L2.10421958e-15,951 L2426,956" id="Path" fill="#4F444C"></path>
                <path d="M3733,131.181128 C3243.65823,5.06882199 2954.30529,47.0496031 2713.8379,108.58609 C2542.54396,152.426463 2396.05408,206.164662 2219.74375,216.162466 C2039.18129,226.380223 1874.01542,157.85527 1713.58802,95.2990077 C1625.79372,61.0660903 1495.34341,29.3627846 1322.23709,0.189090308 L1321,951 L3733,956" id="Path" fill="#4F444C" transform="translate(2527.000000, 478.094545) scale(-1, 1) translate(-2527.000000, -478.094545) "></path>
            </g>
        </g>
    </g>
</svg>